<svg width="38" height="30" viewBox="0 0 38 30" fill="none" xmlns="http://www.w3.org/2000/svg">
<path d="M32.1686 2.88761C29.7466 1.75503 27.1494 0.920595 24.4338 0.442679C24.3844 0.433455 24.335 0.456505 24.3095 0.502607C23.9755 1.10807 23.6055 1.89794 23.3464 2.51878C20.4256 2.07314 17.5199 2.07314 14.659 2.51878C14.3999 1.88414 14.0164 1.10807 13.6809 0.502607C13.6554 0.458044 13.606 0.434993 13.5566 0.442679C10.8425 0.919068 8.2453 1.7535 5.82181 2.88761C5.80083 2.89683 5.78285 2.91221 5.77092 2.93218C0.844537 10.4329 -0.505005 17.7493 0.157035 24.975C0.160031 25.0104 0.179502 25.0442 0.206464 25.0657C3.45675 27.4983 6.6052 28.9751 9.69519 29.954C9.74465 29.9694 9.79704 29.9509 9.82851 29.9094C10.5595 28.8922 11.211 27.8195 11.7697 26.6915C11.8026 26.6255 11.7712 26.5471 11.7038 26.521C10.6703 26.1214 9.6862 25.6343 8.73957 25.0811C8.6647 25.0365 8.6587 24.9274 8.72758 24.8751C8.92679 24.723 9.12605 24.5647 9.31626 24.4049C9.35068 24.3757 9.39863 24.3695 9.43909 24.388C15.658 27.2817 22.3908 27.2817 28.5363 24.388C28.5768 24.368 28.6248 24.3742 28.6607 24.4033C28.8509 24.5632 29.0501 24.723 29.2508 24.8751C29.3197 24.9274 29.3152 25.0365 29.2404 25.0811C28.2937 25.645 27.3096 26.1214 26.2746 26.5194C26.2073 26.5456 26.1773 26.6255 26.2103 26.6915C26.7809 27.8179 27.4325 28.8906 28.1499 29.9079C28.1799 29.9509 28.2338 29.9694 28.2832 29.954C31.3882 28.9751 34.5366 27.4983 37.7869 25.0657C37.8154 25.0442 37.8334 25.0119 37.8364 24.9766C38.6287 16.6229 36.5093 9.36647 32.218 2.9337C32.2075 2.91221 32.1896 2.89683 32.1686 2.88761ZM12.6984 20.5753C10.826 20.5753 9.28329 18.8235 9.28329 16.6721C9.28329 14.5206 10.7961 12.7688 12.6984 12.7688C14.6155 12.7688 16.1434 14.536 16.1134 16.6721C16.1134 18.8235 14.6006 20.5753 12.6984 20.5753ZM25.325 20.5753C23.4527 20.5753 21.91 18.8235 21.91 16.6721C21.91 14.5206 23.4228 12.7688 25.325 12.7688C27.2423 12.7688 28.77 14.536 28.7401 16.6721C28.7401 18.8235 27.2423 20.5753 25.325 20.5753Z" fill="#FC960A"/>
</svg>
