<svg width="2193" height="36" viewBox="0 0 2193 36" fill="none" xmlns="http://www.w3.org/2000/svg">
<path d="M258.7 20.38H264.99V26.67H258.7V20.38Z" fill="#00000F"/>
<path d="M241.17 20.8H245.36V24.9901H241.17V20.8Z" fill="#00000F"/>
<path d="M220.831 18.8701H225.601V23.64H220.831V18.8701Z" fill="#00000F"/>
<path d="M201.841 19.0801H208.261V25.5001H201.841V19.0801Z" fill="#00000F"/>
<path d="M162.74 19.0801H169.16V25.5001H162.74V19.0801Z" fill="#00000F"/>
<path d="M142.621 18.8701H147.391V23.64H142.621V18.8701Z" fill="#00000F"/>
<path d="M112.5 19.08H118.72V25.3H112.5V19.08Z" fill="#00000F"/>
<path d="M95.1605 19.5001H99.3105V23.65H95.1605V19.5001Z" fill="#00000F"/>
<path d="M75.7308 19.76H80.5908V24.6201H75.7308V19.76Z" fill="#00000F"/>
<path d="M53.8804 19.7601H58.9004V24.7801H53.8804V19.7601Z" fill="#00000F"/>
<path d="M35.8704 18.83H40.6904V23.65H35.8704V18.83Z" fill="#00000F"/>
<path d="M16.6504 19.05H23.1504V25.55H16.6504V19.05Z" fill="#00000F"/>
<path fill-rule="evenodd" clip-rule="evenodd" d="M269.43 35.05V30.28H274.05H279.22V34.75H286.71V30.28H291.79V32.76H297.53V30.28H302.6V32.76H307.6V30.28H312.67V35H320.41V30.28H326.32V34.75H333.81V30.28H338.89V32.76H344.63V30.28H349.71V32.76H354.7V30.28H359.78V35H367.52V30.28H373.43V34.75H380.92V30.28H385.99V32.76H391.74V30.28H396.81V32.76H401.81V30.28H406.88V35H414.62V30.28H420.53V34.75H428.02V30.28H433.1V32.76H438.84V30.28H443.92V32.76H448.91V30.28H453.99V35H461.72V30.28H466.47V33.9301H472.32V30.28H476.29V32.37H480.77V30.28H484.74V32.37H488.64V30.28H492.61V34.13H498.65V30.28H501.83V34.79H509.41V30.28H514.54V32.7701H520.35V30.28H525.48V32.7701H530.53V30.28H535.66V35.05H543.49V30.28H548.11V0.450012H274.05H0V30.28H5.17V34.75H12.66V30.28H17.73V32.76H23.47V30.28H28.55V32.76H33.54V30.28H38.62V35H46.36V30.28H52.27V34.75H59.76V30.28H64.84V32.76H70.58V30.28H75.66V32.76H80.65V30.28H85.73V35H93.46V30.28H99.37V34.75H106.86V30.28H111.94V32.76H117.68V30.28H122.76V32.76H127.75V30.28H132.83V35H140.57V30.28H146.48V34.75H153.97V30.28H159.04V32.76H164.79V30.28H169.86V32.76H174.86V30.28H179.93V35H187.67V30.28H192.42V33.9301H198.27V30.28H202.23V32.37H206.72V30.28H210.69V32.37H214.59V30.28H218.55V34.13H224.6V30.28H227.78V34.79H235.35V30.28H240.49V32.7701H246.29V30.28H251.43V32.7701H256.47V30.28H261.61V35.05H269.43Z" fill="#00000F"/>
<path d="M532.75 20.38H539.04V26.67H532.75V20.38Z" fill="#00000F"/>
<path d="M515.231 20.8H519.421V24.9901H515.231V20.8Z" fill="#00000F"/>
<path fill-rule="evenodd" clip-rule="evenodd" d="M0 6.10352e-05H274.05H548.11V21.98H537V26.48H535.09V29.33H529.79V26.48H524.18V21.98H503.46V26.72H500.09V29.6901H494.78V26.72H490.64V21.98H467.05V23.95H464.81V27.61H459.51V23.95H458.14V21.98H442.11V24.66H433.2V21.98H428.64V25.65H415.82V21.98H408.48V26.48H406.57V29.33H401.26V26.48H395.65V21.98H374.94V26.72H371.56V29.6901H366.26V26.72H362.11V21.98H338.52V23.95H336.28V27.61H330.98V23.95H329.61V21.98H313.58V24.66H304.67V21.98H300.12V25.65H287.29V21.98H274.05H262.95V26.48H261.04V29.33H255.74V26.48H250.12V21.98H229.41V26.72H226.03V29.6901H220.73V26.72H216.58V21.98H193V23.95H190.76V27.61H185.45V23.95H184.08V21.98H168.06V24.66H159.15V21.98H154.59V25.65H141.77V21.98H134.42V26.48H132.51V29.33H127.21V26.48H121.6V21.98H100.88V26.72H97.51V29.6901H92.21V26.72H88.06V21.98H64.47V23.95H62.23V27.61H56.93V23.95H55.56V21.98H39.53V24.66H30.62V21.98H26.07V25.65H13.24V21.98H0V6.10352e-05Z" fill="#2C2E36"/>
<path d="M494.88 18.8701H499.65V23.64H494.88V18.8701Z" fill="#00000F"/>
<path d="M475.891 19.0801H482.311V25.5001H475.891V19.0801Z" fill="#00000F"/>
<path d="M436.79 19.0801H443.21V25.5001H436.79V19.0801Z" fill="#00000F"/>
<path d="M416.68 18.8701H421.45V23.64H416.68V18.8701Z" fill="#00000F"/>
<path d="M386.56 19.08H392.78V25.3H386.56V19.08Z" fill="#00000F"/>
<path d="M369.21 19.5001H373.36V23.65H369.21V19.5001Z" fill="#00000F"/>
<path d="M349.78 19.76H354.64V24.6201H349.78V19.76Z" fill="#00000F"/>
<path d="M327.919 19.7601H332.939V24.7801H327.919V19.7601Z" fill="#00000F"/>
<path d="M309.91 18.83H314.73V23.65H309.91V18.83Z" fill="#00000F"/>
<path d="M290.7 19.05H297.2V25.55H290.7V19.05Z" fill="#00000F"/>
<path d="M200.98 10.79H205.13V14.9401H200.98V10.79Z" fill="#00000F"/>
<path d="M179.22 10.3701H185.44V16.59H179.22V10.3701Z" fill="#00000F"/>
<path d="M170.24 10.16H175.01V14.9301H170.24V10.16Z" fill="#00000F"/>
<path d="M151.25 10.3701H157.67V16.8H151.25V10.3701Z" fill="#00000F"/>
<path d="M122.77 10.79H126.92V14.9401H122.77V10.79Z" fill="#00000F"/>
<path d="M101.009 10.3701H107.229V16.59H101.009V10.3701Z" fill="#00000F"/>
<path d="M83.6703 10.79H87.8203V14.9401H83.6703V10.79Z" fill="#00000F"/>
<path d="M64.2406 11.05H69.1006V15.91H64.2406V11.05Z" fill="#00000F"/>
<path d="M50.6907 11.38H53.9307V14.62H50.6907V11.38Z" fill="#00000F"/>
<path d="M33.4502 10.34H39.7402V16.6301H33.4502V10.34Z" fill="#00000F"/>
<path d="M5.16016 10.3401H11.6602V16.8401H5.16016L5.16016 10.3401Z" fill="#00000F"/>
<path d="M267.63 11.05H272.65V16.07H267.63V11.05Z" fill="#00000F"/>
<path d="M249.619 10.1201H254.439V14.94H249.619V10.1201Z" fill="#00000F"/>
<path d="M241.17 10.7501H245.36V14.9401H241.17V10.7501Z" fill="#00000F"/>
<path d="M475.03 10.79H479.18V14.9401H475.03V10.79Z" fill="#00000F"/>
<path d="M453.27 10.3701H459.49V16.59H453.27V10.3701Z" fill="#00000F"/>
<path d="M444.29 10.16H449.06V14.9301H444.29V10.16Z" fill="#00000F"/>
<path d="M425.3 10.3701H431.72V16.8H425.3V10.3701Z" fill="#00000F"/>
<path d="M396.83 10.79H400.98V14.9401H396.83V10.79Z" fill="#00000F"/>
<path d="M375.069 10.3701H381.289V16.59H375.069V10.3701Z" fill="#00000F"/>
<path d="M357.73 10.79H361.88V14.9401H357.73V10.79Z" fill="#00000F"/>
<path d="M338.29 11.05H343.15V15.91H338.29V11.05Z" fill="#00000F"/>
<path d="M324.74 11.38H327.98V14.62H324.74V11.38Z" fill="#00000F"/>
<path d="M307.5 10.34H313.79V16.6301H307.5V10.34Z" fill="#00000F"/>
<path d="M279.21 10.3401H285.71V16.8401H279.21V10.3401Z" fill="#00000F"/>
<path d="M541.691 11.05H546.711V16.07H541.691V11.05Z" fill="#00000F"/>
<path d="M523.68 10.1201H528.5V14.94H523.68V10.1201Z" fill="#00000F"/>
<path d="M515.231 10.7501H519.421V14.9401H515.231V10.7501Z" fill="#00000F"/>
<path d="M806.7 20.38H812.99V26.67H806.7V20.38Z" fill="#00000F"/>
<path d="M789.17 20.8H793.36V24.9901H789.17V20.8Z" fill="#00000F"/>
<path d="M768.831 18.8701H773.601V23.64H768.831V18.8701Z" fill="#00000F"/>
<path d="M749.841 19.0801H756.261V25.5001H749.841V19.0801Z" fill="#00000F"/>
<path d="M710.74 19.0801H717.16V25.5001H710.74V19.0801Z" fill="#00000F"/>
<path d="M690.621 18.8701H695.391V23.64H690.621V18.8701Z" fill="#00000F"/>
<path d="M660.5 19.08H666.72V25.3H660.5V19.08Z" fill="#00000F"/>
<path d="M643.161 19.5001H647.311V23.65H643.161V19.5001Z" fill="#00000F"/>
<path d="M623.731 19.76H628.591V24.6201H623.731V19.76Z" fill="#00000F"/>
<path d="M601.88 19.7601H606.9V24.7801H601.88V19.7601Z" fill="#00000F"/>
<path d="M583.87 18.83H588.69V23.65H583.87V18.83Z" fill="#00000F"/>
<path d="M564.65 19.05H571.15V25.55H564.65V19.05Z" fill="#00000F"/>
<path fill-rule="evenodd" clip-rule="evenodd" d="M817.43 35.05V30.28H822.05H827.22V34.75H834.71V30.28H839.79V32.76H845.53V30.28H850.6V32.76H855.6V30.28H860.67V35H868.41V30.28H874.32V34.75H881.81V30.28H886.89V32.76H892.63V30.28H897.71V32.76H902.7V30.28H907.78V35H915.52V30.28H921.43V34.75H928.92V30.28H933.99V32.76H939.74V30.28H944.81V32.76H949.81V30.28H954.88V35H962.62V30.28H968.53V34.75H976.02V30.28H981.1V32.76H986.84V30.28H991.92V32.76H996.91V30.28H1001.99V35H1009.72V30.28H1014.47V33.9301H1020.32V30.28H1024.29V32.37H1028.77V30.28H1032.74V32.37H1036.64V30.28H1040.61V34.13H1046.65V30.28H1049.83V34.79H1057.41V30.28H1062.54V32.7701H1068.35V30.28H1073.48V32.7701H1078.53V30.28H1083.66V35.05H1091.49V30.28H1096.11V0.450012H822.05H548V30.28H553.17V34.75H560.66V30.28H565.73V32.76H571.47V30.28H576.55V32.76H581.54V30.28H586.62V35H594.36V30.28H600.27V34.75H607.76V30.28H612.84V32.76H618.58V30.28H623.66V32.76H628.65V30.28H633.73V35H641.46V30.28H647.37V34.75H654.86V30.28H659.94V32.76H665.68V30.28H670.76V32.76H675.75V30.28H680.83V35H688.57V30.28H694.48V34.75H701.97V30.28H707.04V32.76H712.79V30.28H717.86V32.76H722.86V30.28H727.93V35H735.67V30.28H740.42V33.9301H746.27V30.28H750.23V32.37H754.72V30.28H758.69V32.37H762.59V30.28H766.55V34.13H772.6V30.28H775.78V34.79H783.35V30.28H788.49V32.7701H794.29V30.28H799.43V32.7701H804.47V30.28H809.61V35.05H817.43Z" fill="#00000F"/>
<path d="M1080.75 20.38H1087.04V26.67H1080.75V20.38Z" fill="#00000F"/>
<path d="M1063.23 20.8H1067.42V24.9901H1063.23V20.8Z" fill="#00000F"/>
<path fill-rule="evenodd" clip-rule="evenodd" d="M548 6.10352e-05H822.05H1096.11V21.98H1085V26.48H1083.09V29.33H1077.79V26.48H1072.18V21.98H1051.46V26.72H1048.09V29.6901H1042.78V26.72H1038.64V21.98H1015.05V23.95H1012.81V27.61H1007.51V23.95H1006.14V21.98H990.11V24.66H981.2V21.98H976.64V25.65H963.82V21.98H956.48V26.48H954.57V29.33H949.26V26.48H943.65V21.98H922.94V26.72H919.56V29.6901H914.26V26.72H910.11V21.98H886.52V23.95H884.28V27.61H878.98V23.95H877.61V21.98H861.58V24.66H852.67V21.98H848.12V25.65H835.29V21.98H822.05H810.95V26.48H809.04V29.33H803.74V26.48H798.12V21.98H777.41V26.72H774.03V29.6901H768.73V26.72H764.58V21.98H741V23.95H738.76V27.61H733.45V23.95H732.08V21.98H716.06V24.66H707.15V21.98H702.59V25.65H689.77V21.98H682.42V26.48H680.51V29.33H675.21V26.48H669.6V21.98H648.88V26.72H645.51V29.6901H640.21V26.72H636.06V21.98H612.47V23.95H610.23V27.61H604.93V23.95H603.56V21.98H587.53V24.66H578.62V21.98H574.07V25.65H561.24V21.98H548V6.10352e-05Z" fill="#2C2E36"/>
<path d="M1042.88 18.8701H1047.65V23.64H1042.88V18.8701Z" fill="#00000F"/>
<path d="M1023.89 19.0801H1030.31V25.5001H1023.89V19.0801Z" fill="#00000F"/>
<path d="M984.79 19.0801H991.21V25.5001H984.79V19.0801Z" fill="#00000F"/>
<path d="M964.68 18.8701H969.45V23.64H964.68V18.8701Z" fill="#00000F"/>
<path d="M934.56 19.08H940.78V25.3H934.56V19.08Z" fill="#00000F"/>
<path d="M917.21 19.5001H921.36V23.65H917.21V19.5001Z" fill="#00000F"/>
<path d="M897.78 19.76H902.64V24.6201H897.78V19.76Z" fill="#00000F"/>
<path d="M875.919 19.7601H880.939V24.7801H875.919V19.7601Z" fill="#00000F"/>
<path d="M857.91 18.83H862.73V23.65H857.91V18.83Z" fill="#00000F"/>
<path d="M838.7 19.05H845.2V25.55H838.7V19.05Z" fill="#00000F"/>
<path d="M748.98 10.79H753.13V14.9401H748.98V10.79Z" fill="#00000F"/>
<path d="M727.22 10.3701H733.44V16.59H727.22V10.3701Z" fill="#00000F"/>
<path d="M718.24 10.16H723.01V14.9301H718.24V10.16Z" fill="#00000F"/>
<path d="M699.25 10.3701H705.67V16.8H699.25V10.3701Z" fill="#00000F"/>
<path d="M670.77 10.79H674.92V14.9401H670.77V10.79Z" fill="#00000F"/>
<path d="M649.009 10.3701H655.229V16.59H649.009V10.3701Z" fill="#00000F"/>
<path d="M631.67 10.79H635.82V14.9401H631.67V10.79Z" fill="#00000F"/>
<path d="M612.241 11.05H617.101V15.91H612.241V11.05Z" fill="#00000F"/>
<path d="M598.691 11.38H601.931V14.62H598.691V11.38Z" fill="#00000F"/>
<path d="M581.45 10.34H587.74V16.6301H581.45V10.34Z" fill="#00000F"/>
<path d="M553.16 10.3401H559.66V16.8401H553.16V10.3401Z" fill="#00000F"/>
<path d="M815.63 11.05H820.65V16.07H815.63V11.05Z" fill="#00000F"/>
<path d="M797.619 10.1201H802.439V14.94H797.619V10.1201Z" fill="#00000F"/>
<path d="M789.17 10.7501H793.36V14.9401H789.17V10.7501Z" fill="#00000F"/>
<path d="M1023.03 10.79H1027.18V14.9401H1023.03V10.79Z" fill="#00000F"/>
<path d="M1001.27 10.3701H1007.49V16.59H1001.27V10.3701Z" fill="#00000F"/>
<path d="M992.29 10.16H997.06V14.9301H992.29V10.16Z" fill="#00000F"/>
<path d="M973.3 10.3701H979.72V16.8H973.3V10.3701Z" fill="#00000F"/>
<path d="M944.83 10.79H948.98V14.9401H944.83V10.79Z" fill="#00000F"/>
<path d="M923.069 10.3701H929.289V16.59H923.069V10.3701Z" fill="#00000F"/>
<path d="M905.73 10.79H909.88V14.9401H905.73V10.79Z" fill="#00000F"/>
<path d="M886.29 11.05H891.15V15.91H886.29V11.05Z" fill="#00000F"/>
<path d="M872.74 11.38H875.98V14.62H872.74V11.38Z" fill="#00000F"/>
<path d="M855.5 10.34H861.79V16.6301H855.5V10.34Z" fill="#00000F"/>
<path d="M827.21 10.3401H833.71V16.8401H827.21V10.3401Z" fill="#00000F"/>
<path d="M1089.69 11.05H1094.71V16.07H1089.69V11.05Z" fill="#00000F"/>
<path d="M1071.68 10.1201H1076.5V14.94H1071.68V10.1201Z" fill="#00000F"/>
<path d="M1063.23 10.7501H1067.42V14.9401H1063.23V10.7501Z" fill="#00000F"/>
<path d="M1354.7 20.38H1360.99V26.67H1354.7V20.38Z" fill="#00000F"/>
<path d="M1337.17 20.8H1341.36V24.9901H1337.17V20.8Z" fill="#00000F"/>
<path d="M1316.83 18.8701H1321.6V23.64H1316.83V18.8701Z" fill="#00000F"/>
<path d="M1297.84 19.0801H1304.26V25.5001H1297.84V19.0801Z" fill="#00000F"/>
<path d="M1258.74 19.0801H1265.16V25.5001H1258.74V19.0801Z" fill="#00000F"/>
<path d="M1238.62 18.8701H1243.39V23.64H1238.62V18.8701Z" fill="#00000F"/>
<path d="M1208.5 19.08H1214.72V25.3H1208.5V19.08Z" fill="#00000F"/>
<path d="M1191.16 19.5001H1195.31V23.65H1191.16V19.5001Z" fill="#00000F"/>
<path d="M1171.73 19.76H1176.59V24.6201H1171.73V19.76Z" fill="#00000F"/>
<path d="M1149.88 19.7601H1154.9V24.7801H1149.88V19.7601Z" fill="#00000F"/>
<path d="M1131.87 18.83H1136.69V23.65H1131.87V18.83Z" fill="#00000F"/>
<path d="M1112.65 19.05H1119.15V25.55H1112.65V19.05Z" fill="#00000F"/>
<path fill-rule="evenodd" clip-rule="evenodd" d="M1365.43 35.05V30.28H1370.05H1375.22V34.75H1382.71V30.28H1387.79V32.76H1393.53V30.28H1398.6V32.76H1403.6V30.28H1408.67V35H1416.41V30.28H1422.32V34.75H1429.81V30.28H1434.89V32.76H1440.63V30.28H1445.71V32.76H1450.7V30.28H1455.78V35H1463.52V30.28H1469.43V34.75H1476.92V30.28H1481.99V32.76H1487.74V30.28H1492.81V32.76H1497.81V30.28H1502.88V35H1510.62V30.28H1516.53V34.75H1524.02V30.28H1529.1V32.76H1534.84V30.28H1539.92V32.76H1544.91V30.28H1549.99V35H1557.72V30.28H1562.47V33.9301H1568.32V30.28H1572.29V32.37H1576.77V30.28H1580.74V32.37H1584.64V30.28H1588.61V34.13H1594.65V30.28H1597.83V34.79H1605.41V30.28H1610.54V32.7701H1616.35V30.28H1621.48V32.7701H1626.53V30.28H1631.66V35.05H1639.49V30.28H1644.11V0.450012H1370.05H1096V30.28H1101.17V34.75H1108.66V30.28H1113.73V32.76H1119.47V30.28H1124.55V32.76H1129.54V30.28H1134.62V35H1142.36V30.28H1148.27V34.75H1155.76V30.28H1160.84V32.76H1166.58V30.28H1171.66V32.76H1176.65V30.28H1181.73V35H1189.46V30.28H1195.37V34.75H1202.86V30.28H1207.94V32.76H1213.68V30.28H1218.76V32.76H1223.75V30.28H1228.83V35H1236.57V30.28H1242.48V34.75H1249.97V30.28H1255.04V32.76H1260.79V30.28H1265.86V32.76H1270.86V30.28H1275.93V35H1283.67V30.28H1288.42V33.9301H1294.27V30.28H1298.23V32.37H1302.72V30.28H1306.69V32.37H1310.59V30.28H1314.55V34.13H1320.6V30.28H1323.78V34.79H1331.35V30.28H1336.49V32.7701H1342.29V30.28H1347.43V32.7701H1352.47V30.28H1357.61V35.05H1365.43Z" fill="#00000F"/>
<path d="M1628.75 20.38H1635.04V26.67H1628.75V20.38Z" fill="#00000F"/>
<path d="M1611.23 20.8H1615.42V24.9901H1611.23V20.8Z" fill="#00000F"/>
<path fill-rule="evenodd" clip-rule="evenodd" d="M1096 6.10352e-05H1370.05H1644.11V21.98H1633V26.48H1631.09V29.33H1625.79V26.48H1620.18V21.98H1599.46V26.72H1596.09V29.6901H1590.78V26.72H1586.64V21.98H1563.05V23.95H1560.81V27.61H1555.51V23.95H1554.14V21.98H1538.11V24.66H1529.2V21.98H1524.64V25.65H1511.82V21.98H1504.48V26.48H1502.57V29.33H1497.26V26.48H1491.65V21.98H1470.94V26.72H1467.56V29.6901H1462.26V26.72H1458.11V21.98H1434.52V23.95H1432.28V27.61H1426.98V23.95H1425.61V21.98H1409.58V24.66H1400.67V21.98H1396.12V25.65H1383.29V21.98H1370.05H1358.95V26.48H1357.04V29.33H1351.74V26.48H1346.12V21.98H1325.41V26.72H1322.03V29.6901H1316.73V26.72H1312.58V21.98H1289V23.95H1286.76V27.61H1281.45V23.95H1280.08V21.98H1264.06V24.66H1255.15V21.98H1250.59V25.65H1237.77V21.98H1230.42V26.48H1228.51V29.33H1223.21V26.48H1217.6V21.98H1196.88V26.72H1193.51V29.6901H1188.21V26.72H1184.06V21.98H1160.47V23.95H1158.23V27.61H1152.93V23.95H1151.56V21.98H1135.53V24.66H1126.62V21.98H1122.07V25.65H1109.24V21.98H1096V6.10352e-05Z" fill="#2C2E36"/>
<path d="M1590.88 18.8701H1595.65V23.64H1590.88V18.8701Z" fill="#00000F"/>
<path d="M1571.89 19.0801H1578.31V25.5001H1571.89V19.0801Z" fill="#00000F"/>
<path d="M1532.79 19.0801H1539.21V25.5001H1532.79V19.0801Z" fill="#00000F"/>
<path d="M1512.68 18.8701H1517.45V23.64H1512.68V18.8701Z" fill="#00000F"/>
<path d="M1482.56 19.08H1488.78V25.3H1482.56V19.08Z" fill="#00000F"/>
<path d="M1465.21 19.5001H1469.36V23.65H1465.21V19.5001Z" fill="#00000F"/>
<path d="M1445.78 19.76H1450.64V24.6201H1445.78V19.76Z" fill="#00000F"/>
<path d="M1423.92 19.7601H1428.94V24.7801H1423.92V19.7601Z" fill="#00000F"/>
<path d="M1405.91 18.83H1410.73V23.65H1405.91V18.83Z" fill="#00000F"/>
<path d="M1386.7 19.05H1393.2V25.55H1386.7V19.05Z" fill="#00000F"/>
<path d="M1296.98 10.79H1301.13V14.9401H1296.98V10.79Z" fill="#00000F"/>
<path d="M1275.22 10.3701H1281.44V16.59H1275.22V10.3701Z" fill="#00000F"/>
<path d="M1266.24 10.16H1271.01V14.9301H1266.24V10.16Z" fill="#00000F"/>
<path d="M1247.25 10.3701H1253.67V16.8H1247.25V10.3701Z" fill="#00000F"/>
<path d="M1218.77 10.79H1222.92V14.9401H1218.77V10.79Z" fill="#00000F"/>
<path d="M1197.01 10.3701H1203.23V16.59H1197.01V10.3701Z" fill="#00000F"/>
<path d="M1179.67 10.79H1183.82V14.9401H1179.67V10.79Z" fill="#00000F"/>
<path d="M1160.24 11.05H1165.1V15.91H1160.24V11.05Z" fill="#00000F"/>
<path d="M1146.69 11.38H1149.93V14.62H1146.69V11.38Z" fill="#00000F"/>
<path d="M1129.45 10.34H1135.74V16.6301H1129.45V10.34Z" fill="#00000F"/>
<path d="M1101.16 10.3401H1107.66V16.8401H1101.16V10.3401Z" fill="#00000F"/>
<path d="M1363.63 11.05H1368.65V16.07H1363.63V11.05Z" fill="#00000F"/>
<path d="M1345.62 10.1201H1350.44V14.94H1345.62V10.1201Z" fill="#00000F"/>
<path d="M1337.17 10.7501H1341.36V14.9401H1337.17V10.7501Z" fill="#00000F"/>
<path d="M1571.03 10.79H1575.18V14.9401H1571.03V10.79Z" fill="#00000F"/>
<path d="M1549.27 10.3701H1555.49V16.59H1549.27V10.3701Z" fill="#00000F"/>
<path d="M1540.29 10.16H1545.06V14.9301H1540.29V10.16Z" fill="#00000F"/>
<path d="M1521.3 10.3701H1527.72V16.8H1521.3V10.3701Z" fill="#00000F"/>
<path d="M1492.83 10.79H1496.98V14.9401H1492.83V10.79Z" fill="#00000F"/>
<path d="M1471.07 10.3701H1477.29V16.59H1471.07V10.3701Z" fill="#00000F"/>
<path d="M1453.73 10.79H1457.88V14.9401H1453.73V10.79Z" fill="#00000F"/>
<path d="M1434.29 11.05H1439.15V15.91H1434.29V11.05Z" fill="#00000F"/>
<path d="M1420.74 11.38H1423.98V14.62H1420.74V11.38Z" fill="#00000F"/>
<path d="M1403.5 10.34H1409.79V16.6301H1403.5V10.34Z" fill="#00000F"/>
<path d="M1375.21 10.3401H1381.71V16.8401H1375.21V10.3401Z" fill="#00000F"/>
<path d="M1637.69 11.05H1642.71V16.07H1637.69V11.05Z" fill="#00000F"/>
<path d="M1619.68 10.1201H1624.5V14.94H1619.68V10.1201Z" fill="#00000F"/>
<path d="M1611.23 10.7501H1615.42V14.9401H1611.23V10.7501Z" fill="#00000F"/>
<path d="M1902.7 20.38H1908.99V26.67H1902.7V20.38Z" fill="#00000F"/>
<path d="M1885.17 20.8H1889.36V24.9901H1885.17V20.8Z" fill="#00000F"/>
<path d="M1864.83 18.8701H1869.6V23.64H1864.83V18.8701Z" fill="#00000F"/>
<path d="M1845.84 19.0801H1852.26V25.5001H1845.84V19.0801Z" fill="#00000F"/>
<path d="M1806.74 19.0801H1813.16V25.5001H1806.74V19.0801Z" fill="#00000F"/>
<path d="M1786.62 18.8701H1791.39V23.64H1786.62V18.8701Z" fill="#00000F"/>
<path d="M1756.5 19.08H1762.72V25.3H1756.5V19.08Z" fill="#00000F"/>
<path d="M1739.16 19.5001H1743.31V23.65H1739.16V19.5001Z" fill="#00000F"/>
<path d="M1719.73 19.76H1724.59V24.6201H1719.73V19.76Z" fill="#00000F"/>
<path d="M1697.88 19.7601H1702.9V24.7801H1697.88V19.7601Z" fill="#00000F"/>
<path d="M1679.87 18.83H1684.69V23.65H1679.87V18.83Z" fill="#00000F"/>
<path d="M1660.65 19.05H1667.15V25.55H1660.65V19.05Z" fill="#00000F"/>
<path fill-rule="evenodd" clip-rule="evenodd" d="M1913.43 35.05V30.28H1918.05H1923.22V34.75H1930.71V30.28H1935.79V32.76H1941.53V30.28H1946.6V32.76H1951.6V30.28H1956.67V35H1964.41V30.28H1970.32V34.75H1977.81V30.28H1982.89V32.76H1988.63V30.28H1993.71V32.76H1998.7V30.28H2003.78V35H2011.52V30.28H2017.43V34.75H2024.92V30.28H2029.99V32.76H2035.74V30.28H2040.81V32.76H2045.81V30.28H2050.88V35H2058.62V30.28H2064.53V34.75H2072.02V30.28H2077.1V32.76H2082.84V30.28H2087.92V32.76H2092.91V30.28H2097.99V35H2105.72V30.28H2110.47V33.9301H2116.32V30.28H2120.29V32.37H2124.77V30.28H2128.74V32.37H2132.64V30.28H2136.61V34.13H2142.65V30.28H2145.83V34.79H2153.41V30.28H2158.54V32.7701H2164.35V30.28H2169.48V32.7701H2174.53V30.28H2179.66V35.05H2187.49V30.28H2192.11V0.450012H1918.05H1644V30.28H1649.17V34.75H1656.66V30.28H1661.73V32.76H1667.47V30.28H1672.55V32.76H1677.54V30.28H1682.62V35H1690.36V30.28H1696.27V34.75H1703.76V30.28H1708.84V32.76H1714.58V30.28H1719.66V32.76H1724.65V30.28H1729.73V35H1737.46V30.28H1743.37V34.75H1750.86V30.28H1755.94V32.76H1761.68V30.28H1766.76V32.76H1771.75V30.28H1776.83V35H1784.57V30.28H1790.48V34.75H1797.97V30.28H1803.04V32.76H1808.79V30.28H1813.86V32.76H1818.86V30.28H1823.93V35H1831.67V30.28H1836.42V33.9301H1842.27V30.28H1846.23V32.37H1850.72V30.28H1854.69V32.37H1858.59V30.28H1862.55V34.13H1868.6V30.28H1871.78V34.79H1879.35V30.28H1884.49V32.7701H1890.29V30.28H1895.43V32.7701H1900.47V30.28H1905.61V35.05H1913.43Z" fill="#00000F"/>
<path d="M2176.75 20.38H2183.04V26.67H2176.75V20.38Z" fill="#00000F"/>
<path d="M2159.23 20.8H2163.42V24.9901H2159.23V20.8Z" fill="#00000F"/>
<path fill-rule="evenodd" clip-rule="evenodd" d="M1644 6.10352e-05H1918.05H2192.11V21.98H2181V26.48H2179.09V29.33H2173.79V26.48H2168.18V21.98H2147.46V26.72H2144.09V29.6901H2138.78V26.72H2134.64V21.98H2111.05V23.95H2108.81V27.61H2103.51V23.95H2102.14V21.98H2086.11V24.66H2077.2V21.98H2072.64V25.65H2059.82V21.98H2052.48V26.48H2050.57V29.33H2045.26V26.48H2039.65V21.98H2018.94V26.72H2015.56V29.6901H2010.26V26.72H2006.11V21.98H1982.52V23.95H1980.28V27.61H1974.98V23.95H1973.61V21.98H1957.58V24.66H1948.67V21.98H1944.12V25.65H1931.29V21.98H1918.05H1906.95V26.48H1905.04V29.33H1899.74V26.48H1894.12V21.98H1873.41V26.72H1870.03V29.6901H1864.73V26.72H1860.58V21.98H1837V23.95H1834.76V27.61H1829.45V23.95H1828.08V21.98H1812.06V24.66H1803.15V21.98H1798.59V25.65H1785.77V21.98H1778.42V26.48H1776.51V29.33H1771.21V26.48H1765.6V21.98H1744.88V26.72H1741.51V29.6901H1736.21V26.72H1732.06V21.98H1708.47V23.95H1706.23V27.61H1700.93V23.95H1699.56V21.98H1683.53V24.66H1674.62V21.98H1670.07V25.65H1657.24V21.98H1644V6.10352e-05Z" fill="#2C2E36"/>
<path d="M2138.88 18.8701H2143.65V23.64H2138.88V18.8701Z" fill="#00000F"/>
<path d="M2119.89 19.0801H2126.31V25.5001H2119.89V19.0801Z" fill="#00000F"/>
<path d="M2080.79 19.0801H2087.21V25.5001H2080.79V19.0801Z" fill="#00000F"/>
<path d="M2060.68 18.8701H2065.45V23.64H2060.68V18.8701Z" fill="#00000F"/>
<path d="M2030.56 19.08H2036.78V25.3H2030.56V19.08Z" fill="#00000F"/>
<path d="M2013.21 19.5001H2017.36V23.65H2013.21V19.5001Z" fill="#00000F"/>
<path d="M1993.78 19.76H1998.64V24.6201H1993.78V19.76Z" fill="#00000F"/>
<path d="M1971.92 19.7601H1976.94V24.7801H1971.92V19.7601Z" fill="#00000F"/>
<path d="M1953.91 18.83H1958.73V23.65H1953.91V18.83Z" fill="#00000F"/>
<path d="M1934.7 19.05H1941.2V25.55H1934.7V19.05Z" fill="#00000F"/>
<path d="M1844.98 10.79H1849.13V14.9401H1844.98V10.79Z" fill="#00000F"/>
<path d="M1823.22 10.3701H1829.44V16.59H1823.22V10.3701Z" fill="#00000F"/>
<path d="M1814.24 10.16H1819.01V14.9301H1814.24V10.16Z" fill="#00000F"/>
<path d="M1795.25 10.3701H1801.67V16.8H1795.25V10.3701Z" fill="#00000F"/>
<path d="M1766.77 10.79H1770.92V14.9401H1766.77V10.79Z" fill="#00000F"/>
<path d="M1745.01 10.3701H1751.23V16.59H1745.01V10.3701Z" fill="#00000F"/>
<path d="M1727.67 10.79H1731.82V14.9401H1727.67V10.79Z" fill="#00000F"/>
<path d="M1708.24 11.05H1713.1V15.91H1708.24V11.05Z" fill="#00000F"/>
<path d="M1694.69 11.38H1697.93V14.62H1694.69V11.38Z" fill="#00000F"/>
<path d="M1677.45 10.34H1683.74V16.6301H1677.45V10.34Z" fill="#00000F"/>
<path d="M1649.16 10.3401H1655.66V16.8401H1649.16V10.3401Z" fill="#00000F"/>
<path d="M1911.63 11.05H1916.65V16.07H1911.63V11.05Z" fill="#00000F"/>
<path d="M1893.62 10.1201H1898.44V14.94H1893.62V10.1201Z" fill="#00000F"/>
<path d="M1885.17 10.7501H1889.36V14.9401H1885.17V10.7501Z" fill="#00000F"/>
<path d="M2119.03 10.79H2123.18V14.9401H2119.03V10.79Z" fill="#00000F"/>
<path d="M2097.27 10.3701H2103.49V16.59H2097.27V10.3701Z" fill="#00000F"/>
<path d="M2088.29 10.16H2093.06V14.9301H2088.29V10.16Z" fill="#00000F"/>
<path d="M2069.3 10.3701H2075.72V16.8H2069.3V10.3701Z" fill="#00000F"/>
<path d="M2040.83 10.79H2044.98V14.9401H2040.83V10.79Z" fill="#00000F"/>
<path d="M2019.07 10.3701H2025.29V16.59H2019.07V10.3701Z" fill="#00000F"/>
<path d="M2001.73 10.79H2005.88V14.9401H2001.73V10.79Z" fill="#00000F"/>
<path d="M1982.29 11.05H1987.15V15.91H1982.29V11.05Z" fill="#00000F"/>
<path d="M1968.74 11.38H1971.98V14.62H1968.74V11.38Z" fill="#00000F"/>
<path d="M1951.5 10.34H1957.79V16.6301H1951.5V10.34Z" fill="#00000F"/>
<path d="M1923.21 10.3401H1929.71V16.8401H1923.21V10.3401Z" fill="#00000F"/>
<path d="M2185.69 11.05H2190.71V16.07H2185.69V11.05Z" fill="#00000F"/>
<path d="M2167.68 10.1201H2172.5V14.94H2167.68V10.1201Z" fill="#00000F"/>
<path d="M2159.23 10.7501H2163.42V14.9401H2159.23V10.7501Z" fill="#00000F"/>
</svg>
