<svg width="38" height="31" viewBox="0 0 38 31" fill="none" xmlns="http://www.w3.org/2000/svg">
<path d="M38 3.65592C36.6019 4.27658 35.0993 4.69458 33.5223 4.883C35.1326 3.91875 36.3692 2.39083 36.9503 0.57C35.4445 1.463 33.7757 2.11217 31.9992 2.46208C30.5789 0.946833 28.5507 0 26.3087 0C21.2752 0 17.5766 4.69617 18.7134 9.57125C12.236 9.24667 6.49167 6.14333 2.64575 1.42658C0.60325 4.9305 1.5865 9.51425 5.05717 11.8354C3.781 11.7942 2.57767 11.4443 1.52792 10.8601C1.44242 14.4717 4.03117 17.8505 7.7805 18.6026C6.68325 18.9002 5.4815 18.9699 4.25917 18.7356C5.25033 21.8326 8.12883 24.0857 11.5425 24.149C8.265 26.7188 4.13567 27.8667 0 27.379C3.45008 29.5909 7.54933 30.8813 11.951 30.8813C26.4258 30.8813 34.6037 18.6564 34.1097 7.69183C35.6329 6.59142 36.955 5.21867 38 3.65592Z" fill="#FC960A"/>
</svg>
